<svg xmlns="http://www.w3.org/2000/svg" width="820" height="470" viewBox="0 0 820 470" font-family="-apple-system, Segoe UI, Helvetica, Arial, sans-serif" font-size="12">
<rect width="820" height="470" fill="#ffffff"/>
<text x="64" y="24" font-size="15" font-weight="600" fill="#1f2328">Accuracy against cost (list prices, September 2026)</text>
<line x1="64" x2="796" y1="414.0" y2="414.0" stroke="#e5e7eb"/>
<text x="56" y="418.0" text-anchor="end" fill="#57606a">0.6</text>
<line x1="64" x2="796" y1="325.0" y2="325.0" stroke="#e5e7eb"/>
<text x="56" y="329.0" text-anchor="end" fill="#57606a">0.7</text>
<line x1="64" x2="796" y1="235.9" y2="235.9" stroke="#e5e7eb"/>
<text x="56" y="239.9" text-anchor="end" fill="#57606a">0.8</text>
<line x1="64" x2="796" y1="146.9" y2="146.9" stroke="#e5e7eb"/>
<text x="56" y="150.9" text-anchor="end" fill="#57606a">0.9</text>
<line x1="64" x2="796" y1="57.8" y2="57.8" stroke="#e5e7eb"/>
<text x="56" y="61.8" text-anchor="end" fill="#57606a">1.0</text>
<line x1="114.8" x2="114.8" y1="40" y2="414" stroke="#eef0f2"/>
<text x="114.8" y="432" text-anchor="middle" fill="#57606a">$0.02</text>
<line x1="234.5" x2="234.5" y1="40" y2="414" stroke="#eef0f2"/>
<text x="234.5" y="432" text-anchor="middle" fill="#57606a">$0.05</text>
<line x1="325.0" x2="325.0" y1="40" y2="414" stroke="#eef0f2"/>
<text x="325.0" y="432" text-anchor="middle" fill="#57606a">$0.1</text>
<line x1="415.5" x2="415.5" y1="40" y2="414" stroke="#eef0f2"/>
<text x="415.5" y="432" text-anchor="middle" fill="#57606a">$0.2</text>
<line x1="535.1" x2="535.1" y1="40" y2="414" stroke="#eef0f2"/>
<text x="535.1" y="432" text-anchor="middle" fill="#57606a">$0.5</text>
<line x1="625.6" x2="625.6" y1="40" y2="414" stroke="#eef0f2"/>
<text x="625.6" y="432" text-anchor="middle" fill="#57606a">$1</text>
<line x1="716.1" x2="716.1" y1="40" y2="414" stroke="#eef0f2"/>
<text x="716.1" y="432" text-anchor="middle" fill="#57606a">$2</text>
<text x="430.0" y="456" text-anchor="middle" fill="#1f2328">US dollars per 1,000 decisions (log scale)</text>
<text transform="translate(16,227.0) rotate(-90)" text-anchor="middle" fill="#1f2328">accuracy, hard set (30 decisions)</text>
<path d="M88.0,265.3 L110.1,265.3 L110.1,117.5 L501.2,117.5 L501.2,57.8" fill="none" stroke="#1f2328" stroke-width="1.4" stroke-dasharray="5 4"/>
<circle cx="626.2" cy="57.8" r="5.5" fill="#10a37f" stroke="#ffffff" stroke-width="1"><title>gpt-5.5: 1.00, $1</title></circle>
<rect x="661.1" y="52.8" width="10" height="10" transform="rotate(45 666.1 57.8)" fill="#d97757" stroke="#ffffff" stroke-width="1"><title>claude-opus-4-6: 1.00, $1.36</title></rect>
<rect x="680.0" y="52.8" width="10" height="10" transform="rotate(45 685.0 57.8)" fill="#d97757" stroke="#ffffff" stroke-width="1"><title>claude-opus-5-5: 1.00, $1.58</title></rect>
<rect x="758.5" y="52.8" width="10" height="10" transform="rotate(45 763.5 57.8)" fill="#d97757" stroke="#ffffff" stroke-width="1"><title>claude-fable-5: 1.00, $2.88</title></rect>
<rect x="767.0" y="52.8" width="10" height="10" transform="rotate(45 772.0 57.8)" fill="#d97757" stroke="#ffffff" stroke-width="1"><title>claude-fable-5-1: 1.00, $3.07</title></rect>
<circle cx="535.7" cy="87.2" r="5.5" fill="#10a37f" stroke="#ffffff" stroke-width="1"><title>gpt-5.4: 0.97, $0.502</title></circle>
<rect x="577.0" y="82.2" width="10" height="10" transform="rotate(45 582.0 87.2)" fill="#d97757" stroke="#ffffff" stroke-width="1"><title>claude-sonnet-4-6: 0.97, $0.716</title></rect>
<rect x="677.3" y="82.2" width="10" height="10" transform="rotate(45 682.3 87.2)" fill="#d97757" stroke="#ffffff" stroke-width="1"><title>claude-sonnet-4-5: 0.97, $1.54</title></rect>
<rect x="669.5" y="82.2" width="10" height="10" transform="rotate(45 674.5 87.2)" fill="#d97757" stroke="#ffffff" stroke-width="1"><title>claude-opus-4-5: 0.97, $1.45</title></rect>
<circle cx="269.0" cy="117.5" r="5.5" fill="#10a37f" stroke="#ffffff" stroke-width="1"><title>gpt-4.1-mini: 0.93, $0.0652</title></circle>
<circle cx="479.2" cy="117.5" r="5.5" fill="#10a37f" stroke="#ffffff" stroke-width="1"><title>gpt-4.1: 0.93, $0.326</title></circle>
<circle cx="503.0" cy="117.5" r="5.5" fill="#10a37f" stroke="#ffffff" stroke-width="1"><title>gpt-5.1: 0.93, $0.391</title></circle>
<circle cx="205.9" cy="117.5" r="5.5" fill="#10a37f" stroke="#ffffff" stroke-width="1"><title>gpt-5.6-luna: 0.93, $0.0402</title></circle>
<rect x="662.9" y="112.5" width="10" height="10" transform="rotate(45 667.9 117.5)" fill="#d97757" stroke="#ffffff" stroke-width="1"><title>claude-opus-4-8: 0.93, $1.38</title></rect>
<circle cx="501.2" cy="117.5" r="5.5" fill="#10a37f" stroke="#ffffff" stroke-width="1"><title>gpt-5.6-sol: 0.93, $0.386</title></circle>
<rect x="553.6" y="112.5" width="10" height="10" transform="rotate(45 558.6 117.5)" fill="#d97757" stroke="#ffffff" stroke-width="1"><title>claude-sonnet-5: 0.93, $0.599</title></rect>
<circle cx="382.3" cy="146.9" r="5.5" fill="#10a37f" stroke="#ffffff" stroke-width="1"><title>gpt-5.4-mini: 0.90, $0.155</title></circle>
<circle cx="508.3" cy="146.9" r="5.5" fill="#10a37f" stroke="#ffffff" stroke-width="1"><title>gpt-4o: 0.90, $0.407</title></circle>
<circle cx="499.1" cy="146.9" r="5.5" fill="#10a37f" stroke="#ffffff" stroke-width="1"><title>gpt-5.2: 0.90, $0.38</title></circle>
<rect x="667.5" y="141.9" width="10" height="10" transform="rotate(45 672.5 146.9)" fill="#d97757" stroke="#ffffff" stroke-width="1"><title>claude-opus-4-7: 0.90, $1.43</title></rect>
<circle cx="506.9" cy="146.9" r="5.5" fill="#10a37f" stroke="#ffffff" stroke-width="1"><title>gpt-5.6-terra: 0.90, $0.403</title></circle>
<rect x="446.1" y="171.2" width="10" height="10" transform="rotate(45 451.1 176.2)" fill="#d97757" stroke="#ffffff" stroke-width="1"><title>claude-haiku-4-5: 0.87, $0.263</title></rect>
<rect x="655.9" y="230.9" width="10" height="10" transform="rotate(45 660.9 235.9)" fill="#d97757" stroke="#ffffff" stroke-width="1"><title>claude-opus-5: 0.80, $1.31</title></rect>
<circle cx="141.0" cy="295.6" r="5.5" fill="#10a37f" stroke="#ffffff" stroke-width="1"><title>gpt-4o-mini: 0.73, $0.0244</title></circle>
<circle cx="207.2" cy="354.3" r="5.5" fill="#10a37f" stroke="#ffffff" stroke-width="1"><title>gpt-5.4-nano: 0.67, $0.0406</title></circle>
<circle cx="296.9" cy="384.6" r="5.5" fill="#10a37f" stroke="#ffffff" stroke-width="1"><title>gpt-3.5-turbo: 0.63, $0.0806</title></circle>
<circle cx="501.2" cy="57.8" r="5.5" fill="#10a37f" stroke="#1f2328" stroke-width="1.6"><title>gpt-6-sol: 1.00, $0.386</title></circle>
<circle cx="110.1" cy="117.5" r="5.5" fill="#10a37f" stroke="#1f2328" stroke-width="1.6"><title>gpt-6-luna: 0.93, $0.0193</title></circle>
<circle cx="88.0" cy="265.3" r="5.5" fill="#10a37f" stroke="#1f2328" stroke-width="1.6"><title>gpt-4.1-nano: 0.77, $0.0163</title></circle>
<text x="97.0" y="257.3" text-anchor="start" fill="#1f2328" font-weight="600">gpt-4.1-nano · $0.0163</text>
<text x="119.1" y="109.5" text-anchor="start" fill="#1f2328" font-weight="600">gpt-6-luna · $0.0193</text>
<text x="510.2" y="49.8" text-anchor="start" fill="#1f2328" font-weight="600">gpt-6-sol · $0.386</text>
<rect x="490" y="315" width="300" height="91" fill="#ffffff" stroke="#d0d7de" rx="4"/>
<circle cx="500" cy="327" r="5" fill="#10a37f"/>
<text x="512" y="331" fill="#1f2328">OpenAI, logprob readout</text>
<rect x="495.5" y="339.5" width="9" height="9" transform="rotate(45 500 344)" fill="#d97757"/>
<text x="512" y="348" fill="#1f2328">Anthropic, answer mode (may reason)</text>
<path d="M495,361 L506,361" stroke="#1f2328" stroke-dasharray="5 4"/><text x="512" y="365" fill="#1f2328">Pareto front (outlined points)</text>
<text x="498" y="383" fill="#57606a" font-size="11">Not shown: local 9B (free); gpt-4, gpt-4-turbo (no list price)</text>
</svg>